<svg  xmlns="http://www.w3.org/2000/svg" xmlns:xlink="http://www.w3.org/1999/xlink" >
 <defs>
 <symbol id="apple" viewBox="0 0 305 305">
 <title>apple</title>
 <path d="M40.738,112.119c-25.785,44.745-9.393,112.648,19.121,153.82C74.092,286.523,88.502,305,108.239,305
		c0.372,0,0.745-0.007,1.127-0.022c9.273-0.37,15.974-3.225,22.453-5.984c7.274-3.1,14.797-6.305,26.597-6.305
		c11.226,0,18.39,3.101,25.318,6.099c6.828,2.954,13.861,6.01,24.253,5.815c22.232-0.414,35.882-20.352,47.925-37.941
		c12.567-18.365,18.871-36.196,20.998-43.01l0.086-0.271c0.405-1.211-0.167-2.533-1.328-3.066c-0.032-0.015-0.15-0.064-0.183-0.078
		c-3.915-1.601-38.257-16.836-38.618-58.36c-0.335-33.736,25.763-51.601,30.997-54.839l0.244-0.152
		c0.567-0.365,0.962-0.944,1.096-1.606c0.134-0.661-0.006-1.349-0.386-1.905c-18.014-26.362-45.624-30.335-56.74-30.813
		c-1.613-0.161-3.278-0.242-4.95-0.242c-13.056,0-25.563,4.931-35.611,8.893c-6.936,2.735-12.927,5.097-17.059,5.097
		c-4.643,0-10.668-2.391-17.645-5.159c-9.33-3.703-19.905-7.899-31.1-7.899c-0.267,0-0.53,0.003-0.789,0.008
		C78.894,73.643,54.298,88.535,40.738,112.119z"/>
	<path d="M212.101,0.002c-15.763,0.642-34.672,10.345-45.974,23.583c-9.605,11.127-18.988,29.679-16.516,48.379
		c0.155,1.17,1.107,2.073,2.284,2.164c1.064,0.083,2.15,0.125,3.232,0.126c15.413,0,32.04-8.527,43.395-22.257
		c11.951-14.498,17.994-33.104,16.166-49.77C214.544,0.921,213.395-0.049,212.101,0.002z"/>
</symbol>
 <symbol id="home" viewBox="0 0 24 24">
 <title>home</title>
  <path stroke-linecap="round" stroke-linejoin="round" d="M3 12l2-2m0 0l7-7 7 7M5 10v10a1 1 0 001 1h3m10-11l2 2m-2-2v10a1 1 0 01-1 1h-3m-6 0a1 1 0 001-1v-4a1 1 0 011-1h2a1 1 0 011 1v4a1 1 0 001 1m-6 0h6" />
</symbol>
 <symbol id="user" viewBox="0 0 24 24">
 <title>user</title>
  <path stroke-linecap="round" stroke-linejoin="round" d="M16 7a4 4 0 11-8 0 4 4 0 018 0zM12 14a7 7 0 00-7 7h14a7 7 0 00-7-7z" />
</symbol>
 <symbol id="chat" viewBox="0 0 24 24">
 <title>chat</title>
  <path stroke-linecap="round" stroke-linejoin="round" d="M8 12h.01M12 12h.01M16 12h.01M21 12c0 4.418-4.03 8-9 8a9.863 9.863 0 01-4.255-.949L3 20l1.395-3.72C3.512 15.042 3 13.574 3 12c0-4.418 4.03-8 9-8s9 3.582 9 8z" />
</symbol>
 <symbol id="question" viewBox="0 0 24 24">
 <title>question</title>
  <path stroke-linecap="round" stroke-linejoin="round" d="M8.228 9c.549-1.165 2.03-2 3.772-2 2.21 0 4 1.343 4 3 0 1.4-1.278 2.575-3.006 2.907-.542.104-.994.54-.994 1.093m0 3h.01M21 12a9 9 0 11-18 0 9 9 0 0118 0z" />
</symbol>
 <symbol id="setting" viewBox="0 0 24 24">
 <title>setting</title>

  <path stroke-linecap="round" stroke-linejoin="round" d="M10.325 4.317c.426-1.756 2.924-1.756 3.35 0a1.724 1.724 0 002.573 1.066c1.543-.94 3.31.826 2.37 2.37a1.724 1.724 0 001.065 2.572c1.756.426 1.756 2.924 0 3.35a1.724 1.724 0 00-1.066 2.573c.94 1.543-.826 3.31-2.37 2.37a1.724 1.724 0 00-2.572 1.065c-.426 1.756-2.924 1.756-3.35 0a1.724 1.724 0 00-2.573-1.066c-1.543.94-3.31-.826-2.37-2.37a1.724 1.724 0 00-1.065-2.572c-1.756-.426-1.756-2.924 0-3.35a1.724 1.724 0 001.066-2.573c-.94-1.543.826-3.31 2.37-2.37.996.608 2.296.07 2.572-1.065z" />
  <path stroke-linecap="round" stroke-linejoin="round" d="M15 12a3 3 0 11-6 0 3 3 0 016 0z" />
</symbol>
 <symbol id="lock" viewBox="0 0 24 24">
 <title>lock</title>
  <path stroke-linecap="round" stroke-linejoin="round" d="M12 15v2m-6 4h12a2 2 0 002-2v-6a2 2 0 00-2-2H6a2 2 0 00-2 2v6a2 2 0 002 2zm10-10V7a4 4 0 00-8 0v4h8z" />
</symbol>
 <symbol id="logout" viewBox="0 0 24 24">
 <title>logout</title>
  <path stroke-linecap="round" stroke-linejoin="round" d="M17 16l4-4m0 0l-4-4m4 4H7m6 4v1a3 3 0 01-3 3H6a3 3 0 01-3-3V7a3 3 0 013-3h4a3 3 0 013 3v1" />
</symbol>
 </defs>
</svg>